<svg version="1.1" id="Layer_1" xmlns="https://www.w3.org/2000/svg" xmlns:xlink="https://www.w3.org/1999/xlink" x="0px" y="0px"
	 width="100%" viewBox="0 0 346 388" enable-background="new 0 0 346 388" xml:space="preserve">
<path fill="#000000" opacity="1.000000" stroke="none" 
	d="
M347.000000,144.000000 
	C347.000000,225.999969 347.000000,307.499939 347.000000,388.999939 
	C231.666733,388.999939 116.333473,388.999939 1.000158,388.999969 
	C1.000106,259.666779 1.000106,130.333572 1.000053,1.000262 
	C116.333168,1.000175 231.666336,1.000175 346.999756,1.000087 
	C347.000000,48.500000 347.000000,96.000000 347.000000,144.000000 
M182.007904,182.007462 
	C182.007904,182.007462 181.978836,181.968063 181.244324,182.433990 
	C181.170425,183.090942 181.032013,183.747879 181.031845,184.404846 
	C181.018707,236.432144 181.009796,288.459442 181.054443,340.486725 
	C181.055466,341.684784 181.670441,342.882355 182.042892,344.839325 
	C184.260971,353.018036 189.225830,356.945435 197.550003,356.951569 
	C227.188446,356.973389 256.827423,356.862305 286.465057,357.016876 
	C296.164734,357.067444 303.230164,350.352448 303.102539,340.611725 
	C302.727264,311.977142 302.959412,283.334625 302.953613,254.695190 
	C302.948853,231.217529 302.953003,207.739853 302.934906,184.262192 
	C302.927124,174.180084 297.659607,169.030655 287.453613,169.032562 
	C256.816101,169.038300 226.178574,169.029846 195.541046,169.041031 
	C188.925400,169.043442 185.265503,171.664581 182.376785,178.304520 
	C182.237534,179.539886 182.098282,180.775238 182.007904,182.007462 
M61.503120,222.963959 
	C88.662209,222.963104 115.821320,222.976257 142.980377,222.952072 
	C150.242172,222.945602 155.917908,217.474426 155.923279,210.290314 
	C155.963516,156.471619 155.945602,102.652870 155.952789,48.834141 
	C155.953415,44.156090 153.793060,40.686581 150.065445,38.056816 
	C144.321716,34.004723 137.557571,35.397964 131.375320,35.286625 
	C104.725372,34.806664 78.055389,35.388653 51.408127,34.837605 
	C41.705688,34.636967 34.897636,43.891747 34.924976,51.472664 
	C35.113636,103.791161 35.032970,156.110611 35.048481,208.429764 
	C35.051025,217.017929 40.932232,222.912476 49.508312,222.959427 
	C53.173878,222.979477 56.839642,222.963531 61.503120,222.963959 
M35.044426,315.500000 
	C35.044003,324.329834 35.246078,333.165680 34.983849,341.987732 
	C34.741665,350.135315 41.821289,356.117584 48.756817,356.064941 
	C80.075905,355.827423 111.397957,356.001526 142.718887,355.973389 
	C150.599457,355.966309 155.938477,350.549713 155.944305,342.672882 
	C155.963898,316.183228 155.959671,289.693573 155.936646,263.203918 
	C155.928925,254.320618 150.743103,249.042572 141.919891,249.032471 
	C111.098640,248.997162 80.277313,248.997238 49.456051,249.025894 
	C40.991070,249.033768 35.103321,254.996460 35.083111,263.520020 
	C35.042812,280.513275 35.054493,297.506653 35.044426,315.500000 
M201.548355,142.989304 
	C230.538589,142.984268 259.528839,143.003754 288.519012,142.958206 
	C296.461121,142.945740 302.884338,137.282822 302.911011,130.001770 
	C303.009827,103.010986 303.016083,76.019333 302.905518,49.028629 
	C302.874573,41.478600 296.894379,36.061398 289.205200,36.061749 
	C258.049103,36.063183 226.893021,36.063778 195.736923,36.068623 
	C187.589111,36.069889 182.094360,41.208069 182.070389,49.303509 
	C181.990463,76.294388 182.013641,103.285805 182.097763,130.276718 
	C182.113266,135.252045 184.244263,139.549500 189.032043,141.249161 
	C192.632187,142.527161 196.706482,142.469482 201.548355,142.989304 
z"/>
<path fill="#3D82F3" opacity="1.000000" stroke="none" 
	d="
M183.018723,177.911469 
	C185.265503,171.664581 188.925400,169.043442 195.541046,169.041031 
	C226.178574,169.029846 256.816101,169.038300 287.453613,169.032562 
	C297.659607,169.030655 302.927124,174.180084 302.934906,184.262192 
	C302.953003,207.739853 302.948853,231.217529 302.953613,254.695190 
	C302.959412,283.334625 302.727264,311.977142 303.102539,340.611725 
	C303.230164,350.352448 296.164734,357.067444 286.465057,357.016876 
	C256.827423,356.862305 227.188446,356.973389 197.550003,356.951569 
	C189.225830,356.945435 184.260971,353.018036 182.029114,343.984680 
	C182.003174,289.409363 181.991013,235.688705 181.978836,181.968063 
	C181.978836,181.968063 182.007904,182.007462 182.208923,181.726440 
	C182.612869,180.267441 182.815796,179.089447 183.018723,177.911469 
M209.934082,213.502014 
	C209.934082,251.574081 209.934082,289.646149 209.934082,327.729279 
	C231.963867,327.729279 253.344727,327.729279 274.738007,327.729279 
	C274.738007,284.019806 274.738007,240.642700 274.738007,197.280518 
	C253.034668,197.280518 231.645676,197.280518 209.933990,197.280518 
	C209.933990,202.566330 209.933990,207.534973 209.934082,213.502014 
z"/>
<path fill="#3D82F3" opacity="1.000000" stroke="none" 
	d="
M61.004219,222.963959 
	C56.839642,222.963531 53.173878,222.979477 49.508312,222.959427 
	C40.932232,222.912476 35.051025,217.017929 35.048481,208.429764 
	C35.032970,156.110611 35.113636,103.791161 34.924976,51.472664 
	C34.897636,43.891747 41.705688,34.636967 51.408127,34.837605 
	C78.055389,35.388653 104.725372,34.806664 131.375320,35.286625 
	C137.557571,35.397964 144.321716,34.004723 150.065445,38.056816 
	C153.793060,40.686581 155.953415,44.156090 155.952789,48.834141 
	C155.945602,102.652870 155.963516,156.471619 155.923279,210.290314 
	C155.917908,217.474426 150.242172,222.945602 142.980377,222.952072 
	C115.821320,222.976257 88.662209,222.963104 61.004219,222.963959 
M128.098145,160.500031 
	C128.098145,128.095932 128.098145,95.691841 128.098145,63.285530 
	C106.032211,63.285530 84.645149,63.285530 63.262779,63.285530 
	C63.262779,107.306320 63.262779,151.008072 63.262779,194.718079 
	C84.985306,194.718079 106.377037,194.718079 128.098160,194.718079 
	C128.098160,183.430328 128.098160,172.465195 128.098145,160.500031 
z"/>
<path fill="#3C82F4" opacity="1.000000" stroke="none" 
	d="
M35.044563,315.000000 
	C35.054493,297.506653 35.042812,280.513275 35.083111,263.520020 
	C35.103321,254.996460 40.991070,249.033768 49.456051,249.025894 
	C80.277313,248.997238 111.098640,248.997162 141.919891,249.032471 
	C150.743103,249.042572 155.928925,254.320618 155.936646,263.203918 
	C155.959671,289.693573 155.963898,316.183228 155.944305,342.672882 
	C155.938477,350.549713 150.599457,355.966309 142.718887,355.973389 
	C111.397957,356.001526 80.075905,355.827423 48.756817,356.064941 
	C41.821289,356.117584 34.741665,350.135315 34.983849,341.987732 
	C35.246078,333.165680 35.044003,324.329834 35.044563,315.000000 
M86.500031,329.007202 
	C98.978928,329.009094 111.460091,328.877930 123.935379,329.091034 
	C127.865234,329.158173 129.158920,327.964752 129.101639,323.973969 
	C128.896255,309.667786 128.903702,295.355164 129.101578,281.048737 
	C129.156143,277.103912 127.908401,275.881134 123.964264,275.916901 
	C104.831512,276.090393 85.696342,275.992706 66.562057,276.011200 
	C65.456985,276.012268 64.352089,276.191315 63.276028,276.285004 
	C63.276028,293.984283 63.276028,311.356781 63.276028,329.007080 
	C70.907196,329.007080 78.203629,329.007080 86.500031,329.007202 
z"/>
<path fill="#3C82F4" opacity="1.000000" stroke="none" 
	d="
M201.059021,142.997849 
	C196.706482,142.469482 192.632187,142.527161 189.032043,141.249161 
	C184.244263,139.549500 182.113266,135.252045 182.097763,130.276718 
	C182.013641,103.285805 181.990463,76.294388 182.070389,49.303509 
	C182.094360,41.208069 187.589111,36.069889 195.736923,36.068623 
	C226.893021,36.063778 258.049103,36.063183 289.205200,36.061749 
	C296.894379,36.061398 302.874573,41.478600 302.905518,49.028629 
	C303.016083,76.019333 303.009827,103.010986 302.911011,130.001770 
	C302.884338,137.282822 296.461121,142.945740 288.519012,142.958206 
	C259.528839,143.003754 230.538589,142.984268 201.059021,142.997849 
M275.507294,114.733681 
	C275.783478,114.340927 276.299408,113.949371 276.301361,113.555244 
	C276.382965,97.255936 276.480713,80.955765 276.316956,64.658310 
	C276.306274,63.594116 274.252075,61.639793 273.138855,61.632851 
	C254.011047,61.513672 234.881287,61.590508 215.753265,61.766418 
	C213.512802,61.787022 211.280029,62.645859 208.985748,64.037247 
	C208.982574,79.521706 209.136856,95.008789 208.877686,110.488968 
	C208.802628,114.972176 210.279236,116.123703 214.589096,116.091049 
	C234.064362,115.943497 253.542023,116.115494 273.279968,116.289925 
	C273.594635,116.317482 273.825104,116.187943 274.105560,115.449821 
	C274.286377,115.158813 274.547821,115.003960 275.507294,114.733681 
z"/>
<path fill="#518DD6" opacity="1.000000" stroke="none" 
	d="
M181.611572,182.201019 
	C181.991013,235.688705 182.003174,289.409363 182.007202,343.605072 
	C181.670441,342.882355 181.055466,341.684784 181.054443,340.486725 
	C181.009796,288.459442 181.018707,236.432144 181.031845,184.404846 
	C181.032013,183.747879 181.170425,183.090942 181.611572,182.201019 
z"/>
<path fill="#518DD6" opacity="1.000000" stroke="none" 
	d="
M182.697754,178.108002 
	C182.815796,179.089447 182.612869,180.267441 182.184509,181.728012 
	C182.098282,180.775238 182.237534,179.539886 182.697754,178.108002 
z"/>
<path fill="#000000" opacity="1.000000" stroke="none" 
	d="
M209.934036,213.002808 
	C209.933990,207.534973 209.933990,202.566330 209.933990,197.280518 
	C231.645676,197.280518 253.034668,197.280518 274.738007,197.280518 
	C274.738007,240.642700 274.738007,284.019806 274.738007,327.729279 
	C253.344727,327.729279 231.963867,327.729279 209.934082,327.729279 
	C209.934082,289.646149 209.934082,251.574081 209.934036,213.002808 
z"/>
<path fill="#000000" opacity="1.000000" stroke="none" 
	d="
M128.098145,161.000031 
	C128.098160,172.465195 128.098160,183.430328 128.098160,194.718079 
	C106.377037,194.718079 84.985306,194.718079 63.262779,194.718079 
	C63.262779,151.008072 63.262779,107.306320 63.262779,63.285530 
	C84.645149,63.285530 106.032211,63.285530 128.098145,63.285530 
	C128.098145,95.691841 128.098145,128.095932 128.098145,161.000031 
z"/>
<path fill="#000000" opacity="1.000000" stroke="none" 
	d="
M86.000046,329.007141 
	C78.203629,329.007080 70.907196,329.007080 63.276028,329.007080 
	C63.276028,311.356781 63.276028,293.984283 63.276028,276.285004 
	C64.352089,276.191315 65.456985,276.012268 66.562057,276.011200 
	C85.696342,275.992706 104.831512,276.090393 123.964264,275.916901 
	C127.908401,275.881134 129.156143,277.103912 129.101578,281.048737 
	C128.903702,295.355164 128.896255,309.667786 129.101639,323.973969 
	C129.158920,327.964752 127.865234,329.158173 123.935379,329.091034 
	C111.460091,328.877930 98.978928,329.009094 86.000046,329.007141 
z"/>
<path fill="#000000" opacity="1.000000" stroke="none" 
	d="
M273.018829,116.172379 
	C253.542023,116.115494 234.064362,115.943497 214.589096,116.091049 
	C210.279236,116.123703 208.802628,114.972176 208.877686,110.488968 
	C209.136856,95.008789 208.982574,79.521706 209.478394,63.529091 
	C231.546707,63.020935 253.122375,63.020935 274.889923,63.020935 
	C274.889923,80.745880 274.889923,97.865570 274.889923,114.985260 
	C274.547821,115.003960 274.286377,115.158813 273.796753,115.730942 
	C273.487976,116.012054 273.018829,116.172379 273.018829,116.172379 
z"/>
<path fill="#4B84DF" opacity="1.000000" stroke="none" 
	d="
M275.198608,114.859467 
	C274.889923,97.865570 274.889923,80.745880 274.889923,63.020935 
	C253.122375,63.020935 231.546707,63.020935 209.507370,63.068520 
	C211.280029,62.645859 213.512802,61.787022 215.753265,61.766418 
	C234.881287,61.590508 254.011047,61.513672 273.138855,61.632851 
	C274.252075,61.639793 276.306274,63.594116 276.316956,64.658310 
	C276.480713,80.955765 276.382965,97.255936 276.301361,113.555244 
	C276.299408,113.949371 275.783478,114.340927 275.198608,114.859467 
z"/>
<path fill="#4B84DF" opacity="1.000000" stroke="none" 
	d="
M273.149414,116.231155 
	C273.018829,116.172379 273.487976,116.012054 273.729675,115.956680 
	C273.825104,116.187943 273.594635,116.317482 273.149414,116.231155 
z"/>
</svg>
